<svg width="39" height="39" viewBox="0 0 39 39" fill="none" xmlns="http://www.w3.org/2000/svg">
<path d="M26 20.9625V27.7875C26 33.475 23.725 35.75 18.0375 35.75H11.2125C5.525 35.75 3.25 33.475 3.25 27.7875V20.9625C3.25 15.275 5.525 13 11.2125 13H18.0375C23.725 13 26 15.275 26 20.9625Z" stroke="white" stroke-width="3" stroke-linecap="round" stroke-linejoin="round"/>
<path d="M35.75 11.2125V18.0375C35.75 23.725 33.475 26 27.7875 26H26V20.9625C26 15.275 23.725 13 18.0375 13H13V11.2125C13 5.525 15.275 3.25 20.9625 3.25H27.7875C33.475 3.25 35.75 5.525 35.75 11.2125Z" stroke="white" stroke-width="3" stroke-linecap="round" stroke-linejoin="round"/>
</svg>
